<svg xmlns="http://www.w3.org/2000/svg" viewBox="0 0 2100 900" width="2100" height="900" role="img" aria-label="WhatsApp Business API chat interface showing AI agent replies, template messages, and a verified business profile on SMSLocal">
  <defs>
    <linearGradient id="bg" x1="0" y1="0" x2="1" y2="1">
      <stop offset="0%" stop-color="#051812"/>
      <stop offset="55%" stop-color="#061b17"/>
      <stop offset="100%" stop-color="#031410"/>
    </linearGradient>
    <linearGradient id="wa-green" x1="0" y1="0" x2="0" y2="1">
      <stop offset="0%" stop-color="#25d366"/>
      <stop offset="100%" stop-color="#128c7e"/>
    </linearGradient>
    <linearGradient id="btn-grad" x1="0" y1="0" x2="1" y2="0">
      <stop offset="0%" stop-color="#25d366"/>
      <stop offset="100%" stop-color="#128c7e"/>
    </linearGradient>
    <linearGradient id="panel-grad" x1="0" y1="0" x2="0" y2="1">
      <stop offset="0%" stop-color="#0d2820"/>
      <stop offset="100%" stop-color="#0a1f18"/>
    </linearGradient>
    <filter id="glow">
      <feGaussianBlur stdDeviation="12" result="blur"/>
      <feComposite in="SourceGraphic" in2="blur" operator="over"/>
    </filter>
    <filter id="shadow">
      <feDropShadow dx="0" dy="4" stdDeviation="20" flood-color="#000" flood-opacity="0.6"/>
    </filter>
    <pattern id="grid" width="40" height="40" patternUnits="userSpaceOnUse">
      <path d="M 40 0 L 0 0 0 40" fill="none" stroke="rgba(255,255,255,0.03)" stroke-width="1"/>
    </pattern>
  </defs>

  <!-- Background -->
  <rect width="2100" height="900" fill="url(#bg)"/>
  <rect width="2100" height="900" fill="url(#grid)"/>

  <!-- Ambient glows -->
  <ellipse cx="500" cy="300" rx="400" ry="300" fill="rgba(37,211,102,0.05)"/>
  <ellipse cx="1700" cy="600" rx="500" ry="350" fill="rgba(37,211,102,0.04)"/>

  <!-- ===== PHONE MOCKUP (LEFT) ===== -->
  <g filter="url(#shadow)">
    <rect x="60" y="60" width="360" height="780" rx="36" fill="#0a1f18" stroke="rgba(37,211,102,0.2)" stroke-width="1.5"/>
  </g>
  <!-- Phone screen -->
  <rect x="72" y="72" width="336" height="756" rx="28" fill="#111b11"/>
  <!-- Notch -->
  <rect x="190" y="72" width="100" height="22" rx="11" fill="#0a1f18"/>

  <!-- WhatsApp header -->
  <rect x="72" y="94" width="336" height="58" fill="#075e54"/>
  <!-- Back arrow + avatar -->
  <text x="88" y="129" font-family="system-ui,sans-serif" font-size="16" fill="rgba(255,255,255,0.8)">←</text>
  <circle cx="120" cy="123" r="18" fill="#128c7e"/>
  <text x="120" y="128" text-anchor="middle" font-family="system-ui,sans-serif" font-size="12" font-weight="700" fill="#fff">SL</text>
  <!-- Contact name + verified -->
  <text x="148" y="117" font-family="system-ui,sans-serif" font-size="13" font-weight="700" fill="#fff">SMSLocal Support</text>
  <!-- Verified tick -->
  <circle cx="268" cy="113" r="7" fill="#25d366"/>
  <text x="268" y="117" text-anchor="middle" font-family="system-ui,sans-serif" font-size="9" font-weight="700" fill="#fff">✓</text>
  <text x="148" y="133" font-family="system-ui,sans-serif" font-size="11" fill="rgba(255,255,255,0.65)">Online · Business Account</text>

  <!-- Chat background pattern -->
  <rect x="72" y="152" width="336" height="584" fill="#0d1f0d"/>

  <!-- Message bubbles -->
  <!-- Incoming: customer -->
  <rect x="88" y="168" width="220" height="52" rx="12" rx-top-left="4" fill="#1f2f1f"/>
  <text x="100" y="187" font-family="system-ui,sans-serif" font-size="11" fill="rgba(255,255,255,0.85)">Hi, I want to track my order</text>
  <text x="100" y="202" font-family="system-ui,sans-serif" font-size="11" fill="rgba(255,255,255,0.85)">#ORD-2024-88821</text>
  <text x="296" y="213" text-anchor="end" font-family="system-ui,sans-serif" font-size="9" fill="rgba(255,255,255,0.3)">10:42 AM</text>

  <!-- Outgoing: AI reply -->
  <rect x="124" y="232" width="268" height="88" rx="12" fill="#005c4b"/>
  <text x="136" y="250" font-family="system-ui,sans-serif" font-size="10" fill="rgba(37,211,102,0.9)" font-weight="600">🤖 AI Agent</text>
  <text x="136" y="266" font-family="system-ui,sans-serif" font-size="11" fill="rgba(255,255,255,0.9)">Hello Priya! Order #ORD-2024-</text>
  <text x="136" y="281" font-family="system-ui,sans-serif" font-size="11" fill="rgba(255,255,255,0.9)">88821 is out for delivery.</text>
  <text x="136" y="296" font-family="system-ui,sans-serif" font-size="11" fill="rgba(255,255,255,0.9)">ETA: Today 2–4 PM 🚚</text>
  <text x="380" y="313" text-anchor="end" font-family="system-ui,sans-serif" font-size="9" fill="rgba(255,255,255,0.35)">10:42 · ✓✓</text>

  <!-- Incoming -->
  <rect x="88" y="332" width="190" height="36" rx="10" fill="#1f2f1f"/>
  <text x="100" y="353" font-family="system-ui,sans-serif" font-size="11" fill="rgba(255,255,255,0.85)">Can I change the address?</text>
  <text x="268" y="362" text-anchor="end" font-family="system-ui,sans-serif" font-size="9" fill="rgba(255,255,255,0.3)">10:43</text>

  <!-- Human handoff badge -->
  <rect x="100" y="378" width="260" height="24" rx="12" fill="rgba(245,158,11,0.15)" stroke="rgba(245,158,11,0.4)" stroke-width="1"/>
  <text x="230" y="394" text-anchor="middle" font-family="system-ui,sans-serif" font-size="10" fill="#f59e0b">⚡ Handed off to human agent</text>

  <!-- Outgoing: human -->
  <rect x="124" y="412" width="268" height="72" rx="12" fill="#005c4b"/>
  <text x="136" y="430" font-family="system-ui,sans-serif" font-size="10" fill="rgba(255,255,255,0.55)" font-weight="600">Raj · Support Agent</text>
  <text x="136" y="448" font-family="system-ui,sans-serif" font-size="11" fill="rgba(255,255,255,0.9)">Hi Priya! Yes, I can update that</text>
  <text x="136" y="463" font-family="system-ui,sans-serif" font-size="11" fill="rgba(255,255,255,0.9)">for you. Please share the</text>
  <text x="136" y="478" font-family="system-ui,sans-serif" font-size="11" fill="rgba(255,255,255,0.9)">new address. 😊</text>
  <text x="380" y="478" text-anchor="end" font-family="system-ui,sans-serif" font-size="9" fill="rgba(255,255,255,0.35)">10:44 · ✓✓</text>

  <!-- Incoming: quick reply buttons -->
  <rect x="88" y="494" width="160" height="32" rx="16" fill="#1f2f1f" stroke="rgba(37,211,102,0.4)" stroke-width="1"/>
  <text x="168" y="514" text-anchor="middle" font-family="system-ui,sans-serif" font-size="11" fill="#25d366">Share location</text>
  <rect x="258" y="494" width="130" height="32" rx="16" fill="#1f2f1f" stroke="rgba(37,211,102,0.4)" stroke-width="1"/>
  <text x="323" y="514" text-anchor="middle" font-family="system-ui,sans-serif" font-size="11" fill="#25d366">Type address</text>

  <!-- Template broadcast banner -->
  <rect x="88" y="540" width="300" height="90" rx="10" fill="#0d2415" stroke="rgba(37,211,102,0.2)" stroke-width="1"/>
  <rect x="88" y="540" width="300" height="28" rx="10" fill="#075e54"/>
  <rect x="88" y="556" width="300" height="12" fill="#075e54"/>
  <text x="238" y="558" text-anchor="middle" font-family="system-ui,sans-serif" font-size="10" font-weight="700" fill="rgba(255,255,255,0.8)">SMSLocal · Template Message</text>
  <text x="100" y="580" font-family="system-ui,sans-serif" font-size="11" fill="rgba(255,255,255,0.75)">Your invoice #INV-2211 for</text>
  <text x="100" y="595" font-family="system-ui,sans-serif" font-size="11" fill="rgba(255,255,255,0.75)">₹4,299 is ready. Tap to pay.</text>
  <rect x="96" y="610" width="284" height="14" rx="7" fill="rgba(37,211,102,0.15)"/>
  <text x="238" y="621" text-anchor="middle" font-family="system-ui,sans-serif" font-size="10" fill="#25d366">Pay Now →</text>
  <text x="376" y="626" text-anchor="end" font-family="system-ui,sans-serif" font-size="9" fill="rgba(255,255,255,0.3)">10:45 · ✓✓</text>

  <!-- Input bar -->
  <rect x="72" y="736" width="336" height="52" fill="#075e54"/>
  <rect x="84" y="746" width="270" height="32" rx="16" fill="#0d2415"/>
  <text x="100" y="766" font-family="system-ui,sans-serif" font-size="12" fill="rgba(255,255,255,0.3)">Message</text>
  <circle cx="370" cy="762" r="14" fill="#25d366"/>
  <text x="370" y="767" text-anchor="middle" font-family="system-ui,sans-serif" font-size="14" fill="#fff">↑</text>

  <!-- ===== MAIN DASHBOARD PANEL (RIGHT) ===== -->
  <g filter="url(#shadow)">
    <rect x="480" y="60" width="1560" height="780" rx="16" fill="url(#panel-grad)" stroke="rgba(37,211,102,0.15)" stroke-width="1"/>
  </g>

  <!-- Dashboard top bar -->
  <rect x="480" y="60" width="1560" height="52" rx="16" fill="#0a1e17"/>
  <rect x="480" y="92" width="1560" height="20" fill="#0a1e17"/>
  <circle cx="510" cy="86" r="6" fill="#ff5f57"/>
  <circle cx="532" cy="86" r="6" fill="#febc2e"/>
  <circle cx="554" cy="86" r="6" fill="#28c840"/>
  <text x="590" y="92" font-family="system-ui,sans-serif" font-size="13" font-weight="600" fill="rgba(255,255,255,0.85)">WhatsApp Business — SMSLocal Dashboard</text>
  <!-- Nav tabs -->
  <text x="900" y="92" font-family="system-ui,sans-serif" font-size="12" fill="rgba(255,255,255,0.4)">Inbox</text>
  <text x="970" y="92" font-family="system-ui,sans-serif" font-size="12" fill="rgba(255,255,255,0.4)">Templates</text>
  <text x="1075" y="92" font-family="system-ui,sans-serif" font-size="12" fill="rgba(255,255,255,0.4)">Broadcasts</text>
  <text x="1190" y="92" font-family="system-ui,sans-serif" font-size="12" fill="#25d366" font-weight="600">Analytics</text>
  <line x1="1190" y1="111" x2="1248" y2="111" stroke="#25d366" stroke-width="2"/>

  <!-- ===== KPI TILES ===== -->
  <!-- Tile 1: Messages sent -->
  <rect x="496" y="130" width="290" height="110" rx="10" fill="rgba(255,255,255,0.03)" stroke="rgba(255,255,255,0.07)" stroke-width="1"/>
  <text x="516" y="158" font-family="system-ui,sans-serif" font-size="11" font-weight="600" fill="rgba(255,255,255,0.4)" letter-spacing="1">MESSAGES SENT · 30D</text>
  <text x="516" y="200" font-family="system-ui,sans-serif" font-size="32" font-weight="800" fill="rgba(255,255,255,0.92)">2,84,119</text>
  <text x="516" y="224" font-family="system-ui,sans-serif" font-size="12" fill="#25d366">↑ 22% vs last month</text>

  <!-- Tile 2: Delivery rate -->
  <rect x="806" y="130" width="290" height="110" rx="10" fill="rgba(255,255,255,0.03)" stroke="rgba(255,255,255,0.07)" stroke-width="1"/>
  <text x="826" y="158" font-family="system-ui,sans-serif" font-size="11" font-weight="600" fill="rgba(255,255,255,0.4)" letter-spacing="1">DELIVERY RATE</text>
  <text x="826" y="200" font-family="system-ui,sans-serif" font-size="32" font-weight="800" fill="#25d366">98.7%</text>
  <text x="826" y="224" font-family="system-ui,sans-serif" font-size="12" fill="rgba(255,255,255,0.4)">Read: 73.2% · Replied: 18.4%</text>

  <!-- Tile 3: AI resolution -->
  <rect x="1116" y="130" width="290" height="110" rx="10" fill="rgba(255,255,255,0.03)" stroke="rgba(255,255,255,0.07)" stroke-width="1"/>
  <text x="1136" y="158" font-family="system-ui,sans-serif" font-size="11" font-weight="600" fill="rgba(255,255,255,0.4)" letter-spacing="1">AI RESOLUTION RATE</text>
  <text x="1136" y="200" font-family="system-ui,sans-serif" font-size="32" font-weight="800" fill="#25d366">84%</text>
  <text x="1136" y="224" font-family="system-ui,sans-serif" font-size="12" fill="rgba(255,255,255,0.4)">16% escalated to humans</text>

  <!-- Tile 4: Templates -->
  <rect x="1426" y="130" width="290" height="110" rx="10" fill="rgba(255,255,255,0.03)" stroke="rgba(255,255,255,0.07)" stroke-width="1"/>
  <text x="1446" y="158" font-family="system-ui,sans-serif" font-size="11" font-weight="600" fill="rgba(255,255,255,0.4)" letter-spacing="1">ACTIVE TEMPLATES</text>
  <text x="1446" y="200" font-family="system-ui,sans-serif" font-size="32" font-weight="800" fill="rgba(255,255,255,0.92)">47</text>
  <text x="1446" y="224" font-family="system-ui,sans-serif" font-size="12" fill="#25d366">All Meta-approved ✓</text>

  <!-- ===== CONVERSATION VOLUME CHART ===== -->
  <rect x="496" y="260" width="780" height="280" rx="10" fill="rgba(255,255,255,0.02)" stroke="rgba(255,255,255,0.06)" stroke-width="1"/>
  <text x="516" y="288" font-family="system-ui,sans-serif" font-size="12" font-weight="600" fill="rgba(255,255,255,0.5)" letter-spacing="0.5">CONVERSATION VOLUME — LAST 14 DAYS</text>

  <!-- Chart bars -->
  <g opacity="0.9">
    <rect x="530" y="460" width="32" height="60" rx="4" fill="rgba(37,211,102,0.3)"/>
    <rect x="582" y="430" width="32" height="90" rx="4" fill="rgba(37,211,102,0.35)"/>
    <rect x="634" y="390" width="32" height="130" rx="4" fill="rgba(37,211,102,0.4)"/>
    <rect x="686" y="410" width="32" height="110" rx="4" fill="rgba(37,211,102,0.35)"/>
    <rect x="738" y="380" width="32" height="140" rx="4" fill="rgba(37,211,102,0.4)"/>
    <rect x="790" y="350" width="32" height="170" rx="4" fill="rgba(37,211,102,0.5)"/>
    <rect x="842" y="320" width="32" height="200" rx="4" fill="rgba(37,211,102,0.55)"/>
    <rect x="894" y="360" width="32" height="160" rx="4" fill="rgba(37,211,102,0.45)"/>
    <rect x="946" y="330" width="32" height="190" rx="4" fill="rgba(37,211,102,0.5)"/>
    <rect x="998" y="300" width="32" height="220" rx="4" fill="rgba(37,211,102,0.6)"/>
    <rect x="1050" y="280" width="32" height="240" rx="4" fill="rgba(37,211,102,0.65)"/>
    <rect x="1102" y="260" width="32" height="260" rx="4" fill="rgba(37,211,102,0.7)"/>
    <rect x="1154" y="240" width="32" height="280" rx="4" fill="rgba(37,211,102,0.75)"/>
    <rect x="1206" y="220" width="32" height="300" rx="4" fill="#25d366"/>
  </g>

  <!-- Baseline -->
  <line x1="516" y1="522" x2="1260" y2="522" stroke="rgba(255,255,255,0.08)" stroke-width="1"/>

  <!-- X labels -->
  <g font-family="system-ui,sans-serif" font-size="10" fill="rgba(255,255,255,0.25)" text-anchor="middle">
    <text x="546" y="538">Jun 30</text>
    <text x="650" y="538">Jul 3</text>
    <text x="754" y="538">Jul 6</text>
    <text x="858" y="538">Jul 9</text>
    <text x="962" y="538">Jul 12</text>
    <text x="1066" y="538">Jul 15</text>
    <text x="1170" y="538">Jul 18</text>
    <text x="1222" y="538">Today</text>
  </g>

  <!-- ===== TEMPLATE TABLE ===== -->
  <rect x="1296" y="260" width="720" height="280" rx="10" fill="rgba(255,255,255,0.02)" stroke="rgba(255,255,255,0.06)" stroke-width="1"/>
  <text x="1316" y="288" font-family="system-ui,sans-serif" font-size="12" font-weight="600" fill="rgba(255,255,255,0.5)" letter-spacing="0.5">TOP TEMPLATES</text>

  <!-- Table header -->
  <rect x="1296" y="296" width="720" height="28" rx="4" fill="rgba(255,255,255,0.04)"/>
  <text x="1316" y="314" font-family="system-ui,sans-serif" font-size="10" fill="rgba(255,255,255,0.35)" font-weight="600">TEMPLATE NAME</text>
  <text x="1700" y="314" font-family="system-ui,sans-serif" font-size="10" fill="rgba(255,255,255,0.35)" font-weight="600">SENT</text>
  <text x="1800" y="314" font-family="system-ui,sans-serif" font-size="10" fill="rgba(255,255,255,0.35)" font-weight="600">READ %</text>
  <text x="1940" y="314" font-family="system-ui,sans-serif" font-size="10" fill="rgba(255,255,255,0.35)" font-weight="600">STATUS</text>

  <!-- Rows -->
  <g font-family="system-ui,sans-serif">
    <line x1="1296" y1="354" x2="2016" y2="354" stroke="rgba(255,255,255,0.04)" stroke-width="1"/>
    <text x="1316" y="344" font-size="12" fill="rgba(255,255,255,0.75)">order_confirmation_v3</text>
    <text x="1700" y="344" font-size="12" fill="rgba(255,255,255,0.6)">84,220</text>
    <text x="1800" y="344" font-size="12" fill="#25d366">81.2%</text>
    <rect x="1920" y="333" width="70" height="18" rx="9" fill="rgba(37,211,102,0.15)"/>
    <text x="1955" y="345" text-anchor="middle" font-size="10" fill="#25d366" font-weight="600">Approved</text>

    <line x1="1296" y1="388" x2="2016" y2="388" stroke="rgba(255,255,255,0.04)" stroke-width="1"/>
    <text x="1316" y="378" font-size="12" fill="rgba(255,255,255,0.75)">payment_reminder_diwali</text>
    <text x="1700" y="378" font-size="12" fill="rgba(255,255,255,0.6)">61,440</text>
    <text x="1800" y="378" font-size="12" fill="#25d366">76.8%</text>
    <rect x="1920" y="367" width="70" height="18" rx="9" fill="rgba(37,211,102,0.15)"/>
    <text x="1955" y="379" text-anchor="middle" font-size="10" fill="#25d366" font-weight="600">Approved</text>

    <line x1="1296" y1="422" x2="2016" y2="422" stroke="rgba(255,255,255,0.04)" stroke-width="1"/>
    <text x="1316" y="412" font-size="12" fill="rgba(255,255,255,0.75)">appointment_reminder_hi</text>
    <text x="1700" y="412" font-size="12" fill="rgba(255,255,255,0.6)">42,891</text>
    <text x="1800" y="412" font-size="12" fill="#25d366">88.4%</text>
    <rect x="1920" y="401" width="70" height="18" rx="9" fill="rgba(37,211,102,0.15)"/>
    <text x="1955" y="413" text-anchor="middle" font-size="10" fill="#25d366" font-weight="600">Approved</text>

    <line x1="1296" y1="456" x2="2016" y2="456" stroke="rgba(255,255,255,0.04)" stroke-width="1"/>
    <text x="1316" y="446" font-size="12" fill="rgba(255,255,255,0.75)">otp_login_secure</text>
    <text x="1700" y="446" font-size="12" fill="rgba(255,255,255,0.6)">38,112</text>
    <text x="1800" y="446" font-size="12" fill="#25d366">91.0%</text>
    <rect x="1920" y="435" width="70" height="18" rx="9" fill="rgba(37,211,102,0.15)"/>
    <text x="1955" y="447" text-anchor="middle" font-size="10" fill="#25d366" font-weight="600">Approved</text>

    <line x1="1296" y1="490" x2="2016" y2="490" stroke="rgba(255,255,255,0.04)" stroke-width="1"/>
    <text x="1316" y="480" font-size="12" fill="rgba(255,255,255,0.75)">cart_recovery_ecom</text>
    <text x="1700" y="480" font-size="12" fill="rgba(255,255,255,0.6)">29,006</text>
    <text x="1800" y="480" font-size="12" fill="#f59e0b">64.1%</text>
    <rect x="1920" y="469" width="70" height="18" rx="9" fill="rgba(245,158,11,0.15)"/>
    <text x="1955" y="481" text-anchor="middle" font-size="10" fill="#f59e0b" font-weight="600">Review</text>

    <line x1="1296" y1="524" x2="2016" y2="524" stroke="rgba(255,255,255,0.04)" stroke-width="1"/>
    <text x="1316" y="514" font-size="12" fill="rgba(255,255,255,0.75)">shipping_update_v2</text>
    <text x="1700" y="514" font-size="12" fill="rgba(255,255,255,0.6)">21,450</text>
    <text x="1800" y="514" font-size="12" fill="#25d366">79.3%</text>
    <rect x="1920" y="503" width="70" height="18" rx="9" fill="rgba(37,211,102,0.15)"/>
    <text x="1955" y="515" text-anchor="middle" font-size="10" fill="#25d366" font-weight="600">Approved</text>
  </g>

  <!-- ===== BOTTOM ROW ===== -->
  <!-- Verified Business Profile card -->
  <rect x="496" y="560" width="480" height="260" rx="10" fill="rgba(255,255,255,0.02)" stroke="rgba(255,255,255,0.06)" stroke-width="1"/>
  <text x="516" y="588" font-family="system-ui,sans-serif" font-size="12" font-weight="600" fill="rgba(255,255,255,0.5)" letter-spacing="0.5">VERIFIED BUSINESS PROFILE</text>

  <!-- Business card preview -->
  <rect x="516" y="600" width="440" height="180" rx="10" fill="#075e54"/>
  <!-- Cover photo area -->
  <rect x="516" y="600" width="440" height="80" rx="10" fill="#064d45"/>
  <rect x="516" y="660" width="440" height="20" fill="#064d45"/>
  <!-- Avatar -->
  <circle cx="580" cy="660" r="36" fill="#0a2820" stroke="#075e54" stroke-width="4"/>
  <text x="580" y="667" text-anchor="middle" font-family="system-ui,sans-serif" font-size="20" font-weight="800" fill="#25d366">SL</text>
  <!-- Verified badge -->
  <circle cx="610" cy="690" r="12" fill="#25d366" stroke="#075e54" stroke-width="2"/>
  <text x="610" y="694" text-anchor="middle" font-family="system-ui,sans-serif" font-size="10" font-weight="700" fill="#fff">✓</text>
  <!-- Business info -->
  <text x="640" y="672" font-family="system-ui,sans-serif" font-size="15" font-weight="700" fill="#fff">SMSLocal</text>
  <text x="640" y="690" font-family="system-ui,sans-serif" font-size="11" fill="rgba(255,255,255,0.7)">Business Messaging Platform</text>
  <!-- Details -->
  <text x="528" y="720" font-family="system-ui,sans-serif" font-size="11" fill="rgba(255,255,255,0.6)">🌐  smslocal.in</text>
  <text x="528" y="740" font-family="system-ui,sans-serif" font-size="11" fill="rgba(255,255,255,0.6)">📍  Mumbai, Maharashtra, India</text>
  <text x="528" y="760" font-family="system-ui,sans-serif" font-size="11" fill="rgba(255,255,255,0.6)">🕒  Mon–Sat, 9 AM – 7 PM IST</text>

  <!-- Languages row -->
  <rect x="496" y="830" width="480" height="0" rx="6" fill="rgba(255,255,255,0.03)"/>

  <!-- ===== BROADCAST COMPOSER ===== -->
  <rect x="996" y="560" width="1020" height="260" rx="10" fill="rgba(255,255,255,0.02)" stroke="rgba(255,255,255,0.06)" stroke-width="1"/>
  <text x="1016" y="588" font-family="system-ui,sans-serif" font-size="12" font-weight="600" fill="rgba(255,255,255,0.5)" letter-spacing="0.5">BROADCAST CAMPAIGN</text>

  <!-- Status badges -->
  <rect x="1560" y="572" width="110" height="24" rx="12" fill="rgba(37,211,102,0.12)" stroke="rgba(37,211,102,0.3)" stroke-width="1"/>
  <text x="1615" y="588" text-anchor="middle" font-family="system-ui,sans-serif" font-size="11" fill="#25d366" font-weight="600">● Sending live</text>

  <!-- Broadcast stats row -->
  <g transform="translate(1016, 600)">
    <!-- Audience -->
    <rect width="220" height="72" rx="8" fill="rgba(255,255,255,0.04)" stroke="rgba(255,255,255,0.06)" stroke-width="1"/>
    <text x="12" y="24" font-family="system-ui,sans-serif" font-size="10" fill="rgba(255,255,255,0.35)" letter-spacing="0.5">AUDIENCE</text>
    <text x="12" y="52" font-family="system-ui,sans-serif" font-size="24" font-weight="800" fill="rgba(255,255,255,0.9)">48,200</text>
    <text x="12" y="66" font-family="system-ui,sans-serif" font-size="10" fill="rgba(255,255,255,0.35)">opted-in contacts</text>

    <!-- Delivered -->
    <rect x="232" width="220" height="72" rx="8" fill="rgba(255,255,255,0.04)" stroke="rgba(255,255,255,0.06)" stroke-width="1"/>
    <text x="244" y="24" font-family="system-ui,sans-serif" font-size="10" fill="rgba(255,255,255,0.35)" letter-spacing="0.5">DELIVERED</text>
    <text x="244" y="52" font-family="system-ui,sans-serif" font-size="24" font-weight="800" fill="#25d366">44,104</text>
    <text x="244" y="66" font-family="system-ui,sans-serif" font-size="10" fill="rgba(255,255,255,0.35)">91.5% · live count</text>

    <!-- Read -->
    <rect x="464" width="220" height="72" rx="8" fill="rgba(255,255,255,0.04)" stroke="rgba(255,255,255,0.06)" stroke-width="1"/>
    <text x="476" y="24" font-family="system-ui,sans-serif" font-size="10" fill="rgba(255,255,255,0.35)" letter-spacing="0.5">READ</text>
    <text x="476" y="52" font-family="system-ui,sans-serif" font-size="24" font-weight="800" fill="#25d366">32,980</text>
    <text x="476" y="66" font-family="system-ui,sans-serif" font-size="10" fill="rgba(255,255,255,0.35)">74.8% read rate</text>

    <!-- Replied -->
    <rect x="696" width="220" height="72" rx="8" fill="rgba(255,255,255,0.04)" stroke="rgba(255,255,255,0.06)" stroke-width="1"/>
    <text x="708" y="24" font-family="system-ui,sans-serif" font-size="10" fill="rgba(255,255,255,0.35)" letter-spacing="0.5">REPLIED</text>
    <text x="708" y="52" font-family="system-ui,sans-serif" font-size="24" font-weight="800" fill="#25d366">8,812</text>
    <text x="708" y="66" font-family="system-ui,sans-serif" font-size="10" fill="rgba(255,255,255,0.35)">19.9% reply rate</text>
  </g>

  <!-- Delivery progress bar -->
  <text x="1016" y="700" font-family="system-ui,sans-serif" font-size="11" fill="rgba(255,255,255,0.4)">Delivery progress</text>
  <rect x="1016" y="708" width="980" height="8" rx="4" fill="rgba(255,255,255,0.08)"/>
  <rect x="1016" y="708" width="895" height="8" rx="4" fill="#25d366"/>
  <text x="1996" y="718" text-anchor="end" font-family="system-ui,sans-serif" font-size="10" fill="#25d366">91.5%</text>

  <!-- Language breakdown -->
  <text x="1016" y="748" font-family="system-ui,sans-serif" font-size="11" fill="rgba(255,255,255,0.4)">Language split</text>
  <g transform="translate(1016, 758)">
    <rect width="490" height="20" rx="4" fill="rgba(37,211,102,0.5)"/>
    <rect x="490" width="220" height="20" rx="4" fill="rgba(37,211,102,0.3)"/>
    <rect x="710" width="130" height="20" rx="4" fill="rgba(37,211,102,0.2)"/>
    <rect x="840" width="140" height="20" rx="4" fill="rgba(37,211,102,0.12)"/>
    <text x="245" y="14" text-anchor="middle" font-family="system-ui,sans-serif" font-size="10" fill="#fff">English 50%</text>
    <text x="600" y="14" text-anchor="middle" font-family="system-ui,sans-serif" font-size="10" fill="rgba(255,255,255,0.8)">Hindi 22%</text>
    <text x="775" y="14" text-anchor="middle" font-family="system-ui,sans-serif" font-size="10" fill="rgba(255,255,255,0.7)">Tamil 13%</text>
    <text x="910" y="14" text-anchor="middle" font-family="system-ui,sans-serif" font-size="10" fill="rgba(255,255,255,0.6)">Other 15%</text>
  </g>

  <!-- Action buttons -->
  <rect x="1016" y="796" width="300" height="40" rx="8" fill="url(#btn-grad)"/>
  <text x="1166" y="820" text-anchor="middle" font-family="system-ui,sans-serif" font-size="13" font-weight="700" fill="#fff">Pause Broadcast</text>
  <rect x="1336" y="796" width="300" height="40" rx="8" fill="rgba(255,255,255,0.06)" stroke="rgba(255,255,255,0.1)" stroke-width="1"/>
  <text x="1486" y="820" text-anchor="middle" font-family="system-ui,sans-serif" font-size="13" font-weight="600" fill="rgba(255,255,255,0.6)">Download Report</text>
  <rect x="1656" y="796" width="340" height="40" rx="8" fill="rgba(255,255,255,0.06)" stroke="rgba(255,255,255,0.1)" stroke-width="1"/>
  <text x="1826" y="820" text-anchor="middle" font-family="system-ui,sans-serif" font-size="13" font-weight="600" fill="rgba(255,255,255,0.6)">New Broadcast →</text>
</svg>
