<svg xmlns="http://www.w3.org/2000/svg" viewBox="0 0 24 24" fill="#FF6C37"><path d="M13.527.099C6.955-.744.942 3.9.099 10.473c-.843 6.572 3.8 12.584 10.373 13.428 6.573.843 12.587-3.801 13.428-10.374C24.744 6.955 20.101.943 13.527.099zm2.471 7.485a.855.855 0 0 1 .593-.593 3.737 3.737 0 0 1 2.508.233c-.426.334-.877.638-1.316.957a1.888 1.888 0 0 0-1.546-.81c-.082.002-.163.011-.239.213zm-3.46 4.282 1.894-3.593 1.692 3.589-3.586.004zm1.95-4.661c-.127.319-.282.627-.42.943-.433-.019-.861-.015-1.278.042a4.734 4.734 0 0 0-2.972 1.568c-.561.67-.928 1.49-1.05 2.36a4.756 4.756 0 0 0 .56 2.941l-1.023.842a6.082 6.082 0 0 1-.714-3.716 6.04 6.04 0 0 1 1.38-3.025 6.089 6.089 0 0 1 3.86-2.095c.569-.064 1.143-.043 1.657.14zm3.425 6.426a6.098 6.098 0 0 1-2.072 2.265 6.073 6.073 0 0 1-3.051.849c-.456-.004-.907-.064-1.35-.174l-.494 1.097a7.476 7.476 0 0 0 1.842.226c1.456.003 2.88-.436 4.07-1.255a7.52 7.52 0 0 0 2.56-2.866l-1.505-.142zm-.006-1.773a3.764 3.764 0 0 1-1.088 2.088 3.718 3.718 0 0 1-2.152.993l-.378-.802a2.62 2.62 0 0 0 1.845-1.13 2.657 2.657 0 0 0 .37-2.085l1.14-.886a3.752 3.752 0 0 1 .263 1.822z"/></svg>
