<svg xmlns="http://www.w3.org/2000/svg" viewBox="0 0 24 24" fill="#ff7a59"><path d="M18.164 7.931V5.085a2.198 2.198 0 0 0 1.268-1.978V3.07a2.199 2.199 0 0 0-2.195-2.195h-.037a2.199 2.199 0 0 0-2.195 2.195v.037a2.198 2.198 0 0 0 1.268 1.978v2.846a6.232 6.232 0 0 0-2.969 1.31L5.087 3.757a2.42 2.42 0 0 0 .072-.561 2.433 2.433 0 1 0-2.433 2.433c.46 0 .887-.135 1.25-.36l8.086 5.293a6.27 6.27 0 0 0-.786 3.028 6.27 6.27 0 0 0 .954 3.33l-2.464 2.464a1.85 1.85 0 0 0-.537-.084 1.875 1.875 0 1 0 1.875 1.875 1.85 1.85 0 0 0-.084-.537l2.432-2.432a6.3 6.3 0 0 0 3.747 1.226c3.476 0 6.3-2.824 6.3-6.3a6.3 6.3 0 0 0-4.836-6.201zm-1.001 9.633a3.433 3.433 0 1 1 0-6.866 3.433 3.433 0 0 1 0 6.866z"/></svg>
