<svg xmlns="http://www.w3.org/2000/svg" viewBox="0 0 24 24" fill="#5E6AD2"><path d="M2.886 15.93a.18.18 0 0 1 .052-.165l11.96-11.96a.18.18 0 0 1 .166-.052 8.95 8.95 0 0 0-.62-.087C9.86 3.183 5.59 5.93 3.7 10.18a8.9 8.9 0 0 0-.814 5.75zM3.43 17.69a.18.18 0 0 1 .037-.2L17.49 3.467a.18.18 0 0 1 .2-.037 9.07 9.07 0 0 1 1.05.605L4.035 18.74a9.07 9.07 0 0 1-.605-1.05zM5.06 19.95a.18.18 0 0 1 .013-.243L19.707 5.073a.18.18 0 0 1 .243-.013c.27.222.53.457.776.703.246.246.48.506.703.776a.18.18 0 0 1-.013.243L7.532 21.44a.18.18 0 0 1-.243.013 9.07 9.07 0 0 1-.776-.703 9.07 9.07 0 0 1-.703-.776zM8.07 21.96a.18.18 0 0 1 .165-.052L20.196 9.947a.18.18 0 0 1 .052.166c.04.205.07.412.087.62.357 4.585-2.39 8.854-6.64 10.744a8.9 8.9 0 0 1-5.75.814z"/></svg>
