<svg xmlns="http://www.w3.org/2000/svg" viewBox="0 0 24 24" fill="#a259ff"><path d="M14.93 5.538a1.385 1.385 0 1 0 0-2.77 1.385 1.385 0 0 0 0 2.77zm4.615 0a1.385 1.385 0 1 0 0-2.77 1.385 1.385 0 0 0 0 2.77zM14.93 10.154a1.385 1.385 0 1 0 0-2.77 1.385 1.385 0 0 0 0 2.77zm4.615 0a1.385 1.385 0 1 0 0-2.77 1.385 1.385 0 0 0 0 2.77zm-4.615 4.615a1.385 1.385 0 1 0 0-2.769 1.385 1.385 0 0 0 0 2.769zm4.615 0a1.385 1.385 0 1 0 0-2.769 1.385 1.385 0 0 0 0 2.769zM4.455 7.385a1.385 1.385 0 1 0 0-2.77 1.385 1.385 0 0 0 0 2.77zM4.455 12a1.385 1.385 0 1 0 0-2.77 1.385 1.385 0 0 0 0 2.77zM4.455 16.615a1.385 1.385 0 1 0 0-2.769 1.385 1.385 0 0 0 0 2.769zM4.455 21.23a1.385 1.385 0 1 0 0-2.769 1.385 1.385 0 0 0 0 2.769zM9.07 7.385a1.385 1.385 0 1 0 0-2.77 1.385 1.385 0 0 0 0 2.77zM9.07 12a1.385 1.385 0 1 0 0-2.77A1.385 1.385 0 0 0 9.07 12zm0 4.615a1.385 1.385 0 1 0 0-2.769 1.385 1.385 0 0 0 0 2.769zM9.07 21.23a1.385 1.385 0 1 0 0-2.769 1.385 1.385 0 0 0 0 2.769z"/></svg>
