<svg xmlns="http://www.w3.org/2000/svg" viewBox="0 0 24 24" fill="#0081FB"><path d="M6.915 4.03c-1.968 0-3.683 1.28-4.871 3.113C.704 9.208 0 11.883 0 14.449c0 .706.07 1.369.21 1.973a6.624 6.624 0 0 0 .265.86 5.297 5.297 0 0 0 .371.761c.696 1.159 1.818 1.927 3.593 1.927 1.497 0 2.633-.671 3.965-2.444.76-1.012 1.144-1.626 2.663-4.32l.756-1.339.186-.325c.186.325.37.648.556.97l1.12 1.935c1.876 3.17 2.812 4.766 4.176 4.766 1.653 0 2.85-.951 3.663-2.235.282-.44.64-1.316.64-1.316s-.49.37-.976.37c-1.276 0-2.77-1.514-4.193-4.025l-.367-.637-.785-1.38c-.25-.44-.498-.882-.742-1.323l-.463-.818c-.97-1.716-2.058-2.663-3.565-2.663zm0 1.067c1.025 0 1.893.628 2.825 2.12l.09.152c-1.513 2.21-2.785 4.45-3.957 6.637-.816 1.517-1.44 2.487-1.926 3.053a3.05 3.05 0 0 1-2.358 1.08c-1.135 0-1.925-.548-2.44-1.395a4.2 4.2 0 0 1-.3-.616 5.55 5.55 0 0 1-.22-1.61c0-2.332.633-4.79 1.86-6.548.939-1.346 2.073-2.873 3.78-2.873zm12.16 0c1.625 0 2.846 1.09 3.84 2.985.765 1.496 1.085 3.124 1.085 4.367 0 1.855-.65 3.093-1.918 3.093-1.007 0-1.714-.807-2.865-2.872l-.734-1.329c-.79-1.437-1.59-2.857-2.39-4.269l.095-.133c.84-1.155 1.7-1.842 2.887-1.842z"/></svg>
