<svg xmlns="http://www.w3.org/2000/svg" viewBox="0 0 24 24" fill="#1CACEB"><path d="M20.591 7.14c-1.17.256-1.943 1.4-1.688 2.569.254 1.169 1.4 1.943 2.568 1.688 1.17-.255 1.943-1.4 1.688-2.569-.254-1.168-1.399-1.942-2.568-1.687zm-8.763-.978c-1.17.255-1.942 1.4-1.688 2.569.255 1.169 1.4 1.942 2.569 1.688 1.169-.255 1.942-1.4 1.688-2.569-.255-1.17-1.4-1.943-2.569-1.688zM2.338 0C1.044 0 0 1.044 0 2.338v10.99c0 1.294 1.044 2.338 2.338 2.338h14.655c1.294 0 2.338-1.044 2.338-2.338V2.338C19.331 1.044 18.287 0 16.993 0H2.338zm8.763 16.5c-.17 0-.342.015-.51.04l-1.266 3.696h3.553l-1.266-3.696a3.41 3.41 0 0 0-.511-.04zm-5.285.69-1.69 3.046h3.38l-1.69-3.046zm10.57 0-1.69 3.046h3.38l-1.69-3.046z"/></svg>
