<svg xmlns="http://www.w3.org/2000/svg" viewBox="0 0 24 24" fill="#00A1E0"><path d="M10.002 6.257c.622-.648 1.489-1.052 2.451-1.052 1.269 0 2.381.702 2.974 1.743a4.2 4.2 0 0 1 1.594-.314c2.332 0 4.223 1.899 4.223 4.242s-1.891 4.242-4.223 4.242a4.17 4.17 0 0 1-.76-.07 3.204 3.204 0 0 1-2.888 1.823 3.19 3.19 0 0 1-1.368-.308 3.66 3.66 0 0 1-3.36 2.21 3.665 3.665 0 0 1-3.524-2.658 3.08 3.08 0 0 1-.542.049C2.914 16.164 2 15.244 2 14.107c0-.763.413-1.43 1.023-1.788a3.47 3.47 0 0 1-.264-1.332c0-1.923 1.554-3.482 3.47-3.482.607 0 1.178.163 1.669.449a3.43 3.43 0 0 1 2.104-.697z"/></svg>
