<svg xmlns="http://www.w3.org/2000/svg" viewBox="0 0 24 24" fill="#52BD94"><path d="M21.479 14.222c.013.038.025.075.025.126 0 .024-.013.062-.025.1A10.082 10.082 0 0 1 11.85 21.4c-1.788 0-3.501-.464-5.026-1.348a.503.503 0 0 1-.176-.69l.689-1.185a.51.51 0 0 1 .688-.189 7.617 7.617 0 0 0 3.825 1.034 7.595 7.595 0 0 0 7.207-5.165.504.504 0 0 1 .64-.314l1.273.43a.49.49 0 0 1 .314.301zm-2.85-4.46H9.452a.498.498 0 0 0-.502.502v1.336c0 .276.226.502.502.502h9.177a.498.498 0 0 0 .502-.502v-1.336a.498.498 0 0 0-.502-.502zM12.156 2.6c1.788 0 3.5.465 5.026 1.349.238.138.314.452.176.69l-.689 1.185a.51.51 0 0 1-.688.188 7.617 7.617 0 0 0-3.825-1.033A7.595 7.595 0 0 0 4.95 10.143a.504.504 0 0 1-.64.314l-1.272-.43a.502.502 0 0 1-.314-.64A10.082 10.082 0 0 1 12.156 2.6zM5.371 13.74h9.177a.498.498 0 0 1 .502.502v1.336a.498.498 0 0 1-.502.502H5.371a.498.498 0 0 1-.502-.502v-1.336c0-.276.226-.502.502-.502zm14.79-1.84a1.337 1.337 0 1 1 0-2.674 1.337 1.337 0 0 1 0 2.674zM3.84 12.1a1.337 1.337 0 1 1 0 2.674 1.337 1.337 0 0 1 0-2.674z"/></svg>
