<svg xmlns="http://www.w3.org/2000/svg" viewBox="0 0 24 24" fill="#96bf48"><path d="M15.337 23.979l7.216-1.561s-2.604-17.613-2.625-17.73c-.018-.116-.116-.192-.213-.192s-1.927-.134-1.927-.134-.978-.978-1.092-1.092v-.019L15.337 23.979zm-2.086-20.385c-.019 0-.039.006-.077.019-.384-1.112-1.073-2.143-2.279-2.143h-.077C10.53.578 9.764 0 9.113 0c-4.729.019-6.984 5.918-7.694 8.927-.019.077-.039.154-.058.231H6.19c.386-1.938.867-3.876 1.561-5.793-.019.039.019.077.058.077h.019c.578 1.559.962 3.244 1.14 4.939h1.946c.058 0 .115-.006.173-.013.021-.002.042-.006.063-.006h.212l.096-.019c.192-3.01 1.302-5.726 1.793-5.746v-.003zm-8.677 9.86l-.558 2.798s.808.405 1.927.405c1.156 0 2.741-.52 2.741-.52l.636-3.049s-1.117.521-2.432.521-2.314-.155-2.314-.155zm5.379 7.735c.192-.077.385-.154.558-.231l.347 3.876-3.337-1.31s.942-.887 2.432-2.335zm-7.772 1.734c0 .77.633 1.4 1.416 1.4.195 0 .384-.038.558-.116l-1.416-2.432a1.408 1.408 0 00-.558 1.148zm11.725-16.193l1.254.115s.213 2.895.213 3.011l-1.467 4.614V6.73z"/></svg>
