<svg xmlns="http://www.w3.org/2000/svg" viewBox="0 0 24 24" fill="#9b5c8f"><path d="M2.047 0C.919 0 0 .92 0 2.047v14.575c0 1.128.919 2.047 2.047 2.047h6.842l-.888 3.284L11.285 24l4.026-4.331h6.641C23.08 19.669 24 18.75 24 17.622V2.047C24 .919 23.081 0 21.953 0H2.047zm1.02 4.469h17.866c.51 0 .918.408.918.918 0 .51-.408.918-.918.918H3.067c-.51 0-.918-.408-.918-.918 0-.51.408-.918.918-.918zm0 4.592h17.866c.51 0 .918.409.918.918 0 .51-.408.919-.918.919H3.067c-.51 0-.918-.409-.918-.919 0-.509.408-.918.918-.918zm0 4.591h10.204c.51 0 .919.409.919.919 0 .51-.41.918-.919.918H3.067c-.51 0-.918-.408-.918-.918 0-.51.408-.919.918-.919z"/></svg>
