<svg xmlns="http://www.w3.org/2000/svg" viewBox="0 0 24 24" fill="#21759b"><path d="M12 0C5.373 0 0 5.373 0 12s5.373 12 12 12 12-5.373 12-12S18.627 0 12 0zM1.89 12c0-1.961.42-3.822 1.168-5.5L7.98 20.232A10.137 10.137 0 0 1 1.89 12zm10.11 10.11a10.094 10.094 0 0 1-2.954-.443l3.135-9.11 3.211 8.796a.926.926 0 0 0 .071.136 10.102 10.102 0 0 1-3.463.621zm1.39-14.687c.607-.032 1.154-.096 1.154-.096.543-.064.48-.862-.064-.83 0 0-1.633.128-2.687.128-1.022 0-2.687-.128-2.687-.128-.544-.032-.607.766-.064.83 0 0 .514.064 1.057.096l1.571 4.305-2.207 6.618L6.532 7.423c.607-.032 1.154-.096 1.154-.096.543-.064.48-.862-.064-.83 0 0-1.633.128-2.687.128-.19 0-.413-.005-.65-.012A10.12 10.12 0 0 1 12 1.89c2.65 0 5.063 1.013 6.873 2.668a3.832 3.832 0 0 0-.238-.008c-1.022 0-1.746.888-1.746 1.842 0 .854.494 1.58.99 2.432.384.672.831 1.536.831 2.782 0 .863-.332 1.865-.766 3.26l-1.004 3.352-3.55-10.555zm3.601 13.102.003-.006 3.161-8.643c.59-1.475.786-2.655.786-3.703 0-.38-.025-.733-.071-1.063A10.113 10.113 0 0 1 22.11 12c0 3.856-2.16 7.212-5.119 9.025z"/></svg>
