<svg xmlns="http://www.w3.org/2000/svg" viewBox="0 0 24 24" fill="#FF4A00"><path d="M11.983 6.369a5.616 5.616 0 0 0-.38-1.056l-4.17-8.004a.5.5 0 0 0-.895.022L2.45 5.734a.5.5 0 0 0 .4.714l3.577.32-5.04 3.645a.5.5 0 0 0 .172.899l4.416.955-3.29 4.105a.5.5 0 0 0 .64.738l8.024-3.976a5.61 5.61 0 0 0 .634-6.765zm8.565 1.654-4.416-.955 3.29-4.105a.5.5 0 0 0-.64-.738l-8.024 3.976a5.61 5.61 0 0 0 .38 7.822l4.17 8.004a.5.5 0 0 0 .895-.022l4.087-8.403a.5.5 0 0 0-.4-.714l-3.577-.32 5.04-3.645a.5.5 0 0 0-.172-.9h-.633z"/></svg>
